<?xml version="1.0" encoding="utf-8"?>
<!-- Generator: Adobe Illustrator 15.1.0, SVG Export Plug-In . SVG Version: 6.00 Build 0)  -->
<!DOCTYPE svg PUBLIC "-//W3C//DTD SVG 1.1//EN" "http://www.w3.org/Graphics/SVG/1.1/DTD/svg11.dtd">
<svg version="1.1" id="レイヤー_1" xmlns="http://www.w3.org/2000/svg" xmlns:xlink="http://www.w3.org/1999/xlink" x="0px"
	 y="0px" width="200px" height="40px" viewBox="0.041 0 200 40" enable-background="new 0.041 0 200 40" xml:space="preserve">
<g>
	<path fill="#FFE77F" d="M58.908,9.899v0.713c0,0.521-0.176,0.962-0.526,1.324c-0.352,0.362-0.781,0.543-1.29,0.543
		c-0.51,0-0.945-0.181-1.308-0.543c-0.362-0.362-0.543-0.803-0.543-1.324V9.899c0-0.498,0.181-0.928,0.543-1.29
		c0.362-0.362,0.798-0.543,1.308-0.543c0.509,0,0.938,0.175,1.29,0.526C58.732,8.944,58.908,9.379,58.908,9.899z M55.768,15.417
		c0.351-0.351,0.786-0.526,1.307-0.526s0.956,0.176,1.308,0.526c0.351,0.351,0.526,0.798,0.526,1.341v13.241
		c0,0.521-0.176,0.956-0.526,1.308c-0.352,0.353-0.781,0.525-1.29,0.525c-0.51,0-0.945-0.182-1.308-0.543
		c-0.363-0.362-0.543-0.792-0.543-1.29V16.758C55.241,16.214,55.416,15.768,55.768,15.417z"/>
	<path fill="#FFE77F" d="M81.824,29.999c0,0.498-0.182,0.928-0.543,1.29c-0.362,0.361-0.781,0.543-1.257,0.543
		c-0.475,0-0.877-0.143-1.205-0.425c-0.328-0.282-0.538-0.628-0.628-1.035c-1.426,0.974-2.966,1.46-4.617,1.46
		c-2.286,0-4.232-0.831-5.84-2.495s-2.41-3.655-2.41-5.976c0-2.321,0.803-4.317,2.41-5.992c1.607-1.675,3.554-2.512,5.84-2.512
		c1.675,0,3.191,0.475,4.549,1.426V9.899c0-0.498,0.182-0.928,0.544-1.29c0.361-0.362,0.798-0.543,1.307-0.543
		c0.51,0,0.945,0.181,1.308,0.543c0.361,0.362,0.543,0.792,0.543,1.29L81.824,29.999L81.824,29.999z M73.574,28.131
		c1.244,0,2.313-0.47,3.208-1.408c0.894-0.938,1.341-2.061,1.341-3.361c0-1.299-0.441-2.428-1.323-3.377
		c-0.883-0.951-1.958-1.426-3.226-1.426c-1.268,0-2.343,0.475-3.226,1.426c-0.883,0.952-1.324,2.077-1.324,3.377
		c0,1.303,0.447,2.424,1.342,3.361C71.26,27.662,72.329,28.131,73.574,28.131z"/>
	<path fill="#FFE77F" d="M97.951,31.934c-2.286,0-4.222-0.838-5.806-2.514c-1.584-1.674-2.376-3.678-2.376-6.009
		s0.798-4.339,2.394-6.026c1.595-1.686,3.514-2.529,5.754-2.529c2.241,0,4.147,0.854,5.721,2.563
		c1.573,1.709,2.359,3.741,2.359,6.095c0,2.354-0.792,4.301-2.376,5.84C102.127,31.074,100.237,31.934,97.951,31.934z
		 M94.692,19.847c-0.815,0.951-1.223,2.127-1.223,3.53c0,1.404,0.407,2.604,1.223,3.6c0.882,0.838,1.946,1.256,3.19,1.256
		c1.245,0,2.309-0.418,3.191-1.256c0.883-0.996,1.324-2.193,1.324-3.6c0-1.402-0.441-2.58-1.324-3.53
		c-0.973-0.86-2.037-1.29-3.191-1.29C96.728,18.557,95.665,18.987,94.692,19.847z"/>
	<path fill="#FFE77F" d="M113.466,29.999v-20.1c0-0.498,0.181-0.928,0.543-1.29c0.362-0.362,0.798-0.543,1.308-0.543
		c0.509,0,0.944,0.181,1.307,0.543c0.362,0.362,0.544,0.792,0.544,1.29v6.383c1.357-0.951,2.874-1.426,4.549-1.426
		c2.286,0,4.232,0.837,5.84,2.512c1.606,1.675,2.41,3.672,2.41,5.991c0,2.32-0.804,4.312-2.41,5.977
		c-1.606,1.664-3.554,2.495-5.84,2.495c-1.652,0-3.191-0.485-4.617-1.46c-0.091,0.408-0.3,0.753-0.628,1.035
		c-0.328,0.283-0.73,0.425-1.205,0.425c-0.476,0-0.895-0.181-1.257-0.543C113.648,30.926,113.466,30.497,113.466,29.999z
		 M124.941,19.983c-0.883-0.951-1.958-1.426-3.227-1.426s-2.343,0.475-3.226,1.426c-0.882,0.951-1.323,2.076-1.323,3.378
		c0,1.302,0.446,2.423,1.341,3.361c0.894,0.938,1.963,1.407,3.208,1.407c1.244,0,2.314-0.47,3.208-1.407
		c0.896-0.938,1.343-2.062,1.343-3.361C126.266,22.061,125.824,20.934,124.941,19.983z"/>
	<path fill="#FFE77F" d="M138.098,29.354c-1.552-1.65-2.326-3.648-2.326-5.992c0-2.342,0.774-4.345,2.326-6.008
		c1.549-1.664,3.467-2.495,5.754-2.495c1.606,0,3.111,0.498,4.517,1.494c0.112-0.43,0.327-0.786,0.646-1.069
		c0.315-0.283,0.707-0.424,1.17-0.424c0.465,0,0.871,0.181,1.225,0.543c0.351,0.362,0.525,0.792,0.525,1.29v13.342
		c0,0.498-0.177,0.923-0.525,1.272c-0.354,0.353-0.76,0.525-1.225,0.525c-0.463,0-0.854-0.137-1.17-0.407
		c-0.318-0.271-0.533-0.623-0.646-1.053c-1.382,0.974-2.888,1.46-4.517,1.46C141.564,31.832,139.646,31.005,138.098,29.354z
		 M139.402,23.361c0,1.369,0.414,2.519,1.24,3.445c0.824,0.928,1.89,1.393,3.189,1.393s2.377-0.465,3.227-1.393
		c0.85-0.929,1.272-2.07,1.272-3.431c0-1.356-0.433-2.512-1.29-3.462c-0.859-0.951-1.932-1.426-3.209-1.426s-2.337,0.47-3.174,1.409
		C139.82,20.836,139.402,21.992,139.402,23.361z"/>
	<path fill="#FFE77F" d="M166.02,14.856c0.521,0,0.969,0.181,1.342,0.543s0.562,0.798,0.562,1.307s-0.188,0.951-0.562,1.324
		c-0.373,0.374-0.819,0.56-1.342,0.56h-0.849v9.473c0.521,0,0.962,0.188,1.324,0.562s0.543,0.819,0.543,1.341
		s-0.181,0.962-0.543,1.324c-0.362,0.361-0.804,0.543-1.324,0.543c-1.041,0-1.93-0.368-2.665-1.104
		c-0.734-0.735-1.104-1.623-1.104-2.664V18.59h-0.984c-0.521,0-0.962-0.181-1.324-0.543c-0.361-0.362-0.543-0.803-0.543-1.324
		s0.182-0.962,0.543-1.324c0.362-0.362,0.805-0.543,1.324-0.543h0.984V9.934c0-0.521,0.188-0.962,0.561-1.324
		c0.373-0.362,0.82-0.543,1.342-0.543s0.961,0.181,1.323,0.543c0.362,0.362,0.543,0.804,0.543,1.324v4.923L166.02,14.856
		L166.02,14.856z"/>
	<path fill="#FFE77F" d="M176.087,29.354c-1.551-1.65-2.325-3.648-2.325-5.992c0-2.342,0.774-4.345,2.325-6.008
		c1.55-1.664,3.468-2.495,5.755-2.495c1.606,0,3.111,0.498,4.516,1.494c0.113-0.43,0.328-0.786,0.646-1.069
		c0.314-0.283,0.707-0.424,1.171-0.424c0.466,0,0.871,0.181,1.224,0.543c0.352,0.362,0.525,0.792,0.525,1.29v13.342
		c0,0.498-0.176,0.923-0.525,1.272c-0.353,0.353-0.758,0.525-1.224,0.525c-0.464,0-0.854-0.137-1.171-0.407
		c-0.316-0.27-0.531-0.623-0.646-1.053c-1.381,0.974-2.887,1.46-4.516,1.46C179.555,31.832,177.637,31.005,176.087,29.354z
		 M177.395,23.361c0,1.369,0.412,2.519,1.238,3.445c0.826,0.928,1.891,1.393,3.191,1.393c1.3,0,2.377-0.465,3.226-1.393
		c0.849-0.929,1.272-2.07,1.272-3.431c0-1.356-0.43-2.512-1.289-3.462c-0.86-0.951-1.932-1.426-3.209-1.426
		c-1.278,0-2.338,0.47-3.174,1.409C177.812,20.837,177.395,21.992,177.395,23.361z"/>
</g>
<g>
	<g>
		<polygon fill="#FFFFFF" points="14.743,31.889 11.403,29.605 31.438,15.908 34.778,18.191 		"/>
		<polygon fill="#FFFFFF" points="3.338,24.092 0,21.809 20.035,8.111 23.374,10.394 		"/>
	</g>
	<g>
		<polygon fill="#FFFFFF" points="0,18.191 3.338,15.908 23.374,29.605 20.035,31.889 		"/>
		<polygon fill="#FFFFFF" points="11.403,10.394 14.743,8.111 34.778,21.809 31.438,24.092 		"/>
	</g>
</g>
</svg>
